<?xml version="1.0" encoding="UTF-8" standalone="no" ?>
<!DOCTYPE svg PUBLIC "-//W3C//DTD SVG 1.1//EN" "http://www.w3.org/Graphics/SVG/1.1/DTD/svg11.dtd">
<svg xmlns="http://www.w3.org/2000/svg" xmlns:xlink="http://www.w3.org/1999/xlink" version="1.1" width="1080" height="1080" viewBox="0 0 1080 1080" xml:space="preserve">
<desc>Created with Fabric.js 5.2.4</desc>
<defs>
</defs>
<g transform="matrix(1 0 0 1 540 540)" id="9ab40d24-371f-43e6-96ef-c5cb69a568f9"  >
<rect style="stroke: none; stroke-width: 1; stroke-dasharray: none; stroke-linecap: butt; stroke-dashoffset: 0; stroke-linejoin: miter; stroke-miterlimit: 4; fill: rgb(0,0,0); fill-opacity: 0; fill-rule: nonzero; opacity: 1;" vector-effect="non-scaling-stroke"  x="-540" y="-540" rx="0" ry="0" width="1080" height="1080" />
</g>
<g transform="matrix(1 0 0 1 540 540)" id="5735be21-6257-475a-a285-289b81167ea5"  >
</g>
<g transform="matrix(1 0 0 1 540.12 516.17)"  >
<rect style="stroke: none; stroke-width: 1; stroke-dasharray: none; stroke-linecap: butt; stroke-dashoffset: 0; stroke-linejoin: miter; stroke-miterlimit: 4; fill: rgb(255,255,255); fill-rule: nonzero; opacity: 1; visibility: hidden;" vector-effect="non-scaling-stroke"  x="-540" y="-540" rx="0" ry="0" width="1080" height="1080" />
</g>
<g transform="matrix(1.67 0 0 1.67 -278.3 -278.3)"  >
<rect style="stroke: none; stroke-width: 1; stroke-dasharray: none; stroke-linecap: butt; stroke-dashoffset: 0; stroke-linejoin: miter; stroke-miterlimit: 4; fill: rgb(255,255,255); fill-opacity: 0; fill-rule: nonzero; opacity: 1;" vector-effect="non-scaling-stroke"  x="-50" y="-50" rx="0" ry="0" width="100" height="100" />
</g>
<g transform="matrix(1.67 0 0 1.67 540 540)"  >
<rect style="stroke: none; stroke-width: 1; stroke-dasharray: none; stroke-linecap: butt; stroke-dashoffset: 0; stroke-linejoin: miter; stroke-miterlimit: 4; fill: rgb(255,255,255); fill-rule: nonzero; opacity: 1; visibility: hidden;" vector-effect="non-scaling-stroke"  x="-540" y="-540" rx="0" ry="0" width="1080" height="1080" />
</g>
<g transform="matrix(2.53 0 0 2.53 373.24 427.63)"  >
<path style="stroke: none; stroke-width: 1; stroke-dasharray: none; stroke-linecap: butt; stroke-dashoffset: 0; stroke-linejoin: miter; stroke-miterlimit: 4; fill: rgb(0,255,212); fill-rule: nonzero; opacity: 1;" vector-effect="non-scaling-stroke"  transform=" translate(-203.41, -152.01)" d="M 185.930283 301.91156 C 185.953445 264.763458 186.098022 227.614365 185.802124 190.468781 C 185.774124 186.956131 183.590805 183.008667 181.369675 180.0401 C 168.631622 163.015594 160.229172 144.063568 157.153183 123.1446 C 153.414627 97.71978 157.016708 72.940804 169.211594 50.24876 C 176.032486 37.556557 185.16925 26.100054 193.384521 14.170777 C 196.342819 9.875054 199.658005 5.82513 202.905167 1.331518 C 203.444443 1 203.888901 1 204.761505 1.331516 C 205.736038 2.279696 206.320618 2.866869 206.82283 3.517621 C 211.55098 9.644397 216.265045 15.782025 220.991135 22.288883 C 221.546417 23.825815 221.95903 25.079803 222.66304 26.140381 C 227.068542 32.777332 231.997849 39.111938 235.904327 46.026527 C 248.990067 69.188599 253.250473 94.092163 250.075256 120.473328 C 247.601318 141.027817 240.345901 159.529419 228.356903 176.380096 C 225.793579 179.98288 223.259567 184.642883 223.217209 188.841125 C 222.834137 226.817917 223.008499 264.800354 222.552094 302.840759 C 211.590866 302.915466 201.096725 302.973297 190.603516 302.899261 C 189.043533 302.888245 187.487915 302.256287 185.930283 301.91156 M 211.982285 62.517166 C 209.512283 60.0476 206.937698 57.67226 204.602997 55.080807 C 202.459442 52.701534 200.766586 52.637791 198.448517 54.998528 C 188.660172 64.967003 178.656372 74.724617 168.918106 84.740929 C 167.166672 86.542389 165.641876 89.069603 165.161942 91.489693 C 164.332565 95.67202 166.613983 98.706612 170.346848 100.72049 C 174.686096 103.061493 178.155563 101.025558 181.086258 98.285591 C 186.914856 92.836304 192.545059 87.161079 198.030746 81.364861 C 200.58049 78.670784 202.36853 78.643936 204.926941 81.352386 C 210.29277 87.032883 215.71283 92.705444 221.576935 97.849701 C 223.79071 99.79171 227.53923 101.628723 230.162949 101.155632 C 238.591415 99.635864 240.568741 91.479691 234.315125 84.933701 C 227.193542 77.479195 219.772964 70.310349 211.982285 62.517166 M 187.483276 111.983292 C 180.889511 118.581398 174.269531 125.153587 167.713181 131.788681 C 164.495163 135.045334 164.14325 138.73494 166.347229 142.740646 C 168.534042 146.715103 172.19873 147.866653 176.102783 146.802628 C 178.652115 146.107834 181.070602 144.184464 183.051788 142.292206 C 189.262024 136.360718 195.237198 130.183151 201.679138 123.724213 C 208.543976 130.728088 214.803513 137.413223 221.40181 143.745377 C 226.104294 148.258148 231.437134 148.301743 235.059021 144.478912 C 239.077972 140.237 238.724564 135.252502 233.984619 130.479782 C 227.176743 123.624794 220.253494 116.882713 213.52562 109.950607 C 209.632828 105.939659 206.02684 101.650375 202.061371 97.229485 C 196.629776 102.728806 192.306488 107.10601 187.483276 111.983292 z" stroke-linecap="round" />
</g>
<g transform="matrix(2.53 0 0 2.53 769.83 427.04)"  >
<path style="stroke: none; stroke-width: 1; stroke-dasharray: none; stroke-linecap: butt; stroke-dashoffset: 0; stroke-linejoin: miter; stroke-miterlimit: 4; fill: rgb(0,255,212); fill-rule: nonzero; opacity: 1;" vector-effect="non-scaling-stroke"  transform=" translate(-362.09, -151.76)" d="M 346.666687 0.999999 C 357.262787 15.093791 367.837402 28.973553 377.699524 43.342361 C 387.313477 57.349628 392.884888 72.989677 395.099976 89.966377 C 398.183319 113.597649 394.787689 136.100723 383.799438 157.133667 C 379.153778 166.025986 372.654358 173.940079 367.184296 182.419281 C 366.035858 184.199509 365.097321 186.506439 365.090698 188.573975 C 364.970215 226.045334 365.007477 263.517212 364.745392 301.753845 C 352.315491 302.601715 340.151245 302.684753 327.995026 302.313751 C 328.007202 264.402344 327.941406 226.944611 328.146729 189.488327 C 328.163361 186.454224 329.515717 183.106705 331.1521 180.465317 C 335.249786 173.850861 340.291443 167.805405 344.199768 161.092346 C 357.83139 137.67804 361.743591 112.437515 357.421448 85.809135 C 354.055603 65.072205 344.191223 47.418076 331.599731 31.013947 C 330.056 29.002802 329.207214 26.45825 328.347351 24.001064 C 334.10556 16.227489 339.552765 8.613741 345 0.999996 C 345.444458 1 345.888885 1 346.666687 0.999999 z" stroke-linecap="round" />
</g>
<g transform="matrix(2.53 0 0 2.53 679.34 427.24)"  >
<path style="stroke: none; stroke-width: 1; stroke-dasharray: none; stroke-linecap: butt; stroke-dashoffset: 0; stroke-linejoin: miter; stroke-miterlimit: 4; fill: rgb(65,233,205); fill-rule: nonzero; opacity: 1;" vector-effect="non-scaling-stroke"  transform=" translate(-325.54, -151.86)" d="M 328.036377 24.160889 C 329.207214 26.45825 330.056 29.002802 331.599731 31.013947 C 344.191223 47.418076 354.055603 65.072205 357.421448 85.809135 C 361.743591 112.437515 357.83139 137.67804 344.199768 161.092346 C 340.291443 167.805405 335.249786 173.850861 331.1521 180.465317 C 329.515717 183.106705 328.163361 186.454224 328.146729 189.488327 C 327.941406 226.944611 328.007202 264.402344 327.530029 302.374817 C 315.378052 302.853638 303.699066 302.817322 292.010223 302.326141 C 291.995178 263.929901 291.922943 225.98819 292.118866 188.047867 C 292.133667 185.181824 293.420593 181.83226 295.195099 179.544205 C 307.562836 163.597198 317.078064 146.463684 320.515656 126.215126 C 322.991272 111.632812 322.844543 97.110756 320.24649 82.728378 C 316.87851 64.083687 308.126831 47.779991 296.536255 32.886929 C 294.514313 30.288897 293.475403 26.925852 292.112885 23.603966 C 297.828888 15.861195 303.414429 8.430596 309 0.999999 C 309.444458 1 309.888885 1 310.677917 1.358839 C 316.693756 9.198747 322.365082 16.679817 328.036377 24.160889 z" stroke-linecap="round" />
</g>
<g transform="matrix(2.59 0 0 2.53 588.39 427.27)"  >
<path style="stroke: none; stroke-width: 1; stroke-dasharray: none; stroke-linecap: butt; stroke-dashoffset: 0; stroke-linejoin: miter; stroke-miterlimit: 4; fill: rgb(0,255,212); fill-rule: nonzero; opacity: 1;" vector-effect="non-scaling-stroke"  transform=" translate(-289.13, -151.86)" d="M 291.982452 23.91614 C 293.475403 26.925852 294.514313 30.288897 296.536255 32.886929 C 308.126831 47.779991 316.87851 64.083687 320.24649 82.728378 C 322.844543 97.110756 322.991272 111.632812 320.515656 126.215126 C 317.078064 146.463684 307.562836 163.597198 295.195099 179.544205 C 293.420593 181.83226 292.133667 185.181824 292.118866 188.047867 C 291.922943 225.98819 291.995178 263.929901 291.542572 302.386688 C 279.381073 302.859711 267.677399 302.817322 255.981201 302.320435 C 255.992554 264.093872 255.948425 226.321548 256.106323 188.550079 C 256.117065 185.982407 257.169922 183.124146 258.552277 180.909134 C 263.986847 172.200928 270.681274 164.157455 275.194611 155.020844 C 284.908112 135.357208 288.981964 114.518906 286.153564 92.361443 C 283.946503 75.07196 278.483307 59.199215 269.084869 44.626003 C 264.795593 37.975071 260.315948 31.446915 256.078094 24.555405 C 261.822357 16.498487 267.411163 8.749241 273 0.999997 C 273.444458 1 273.888885 1 274.761719 1.331444 C 280.787537 9.080639 286.38501 16.498388 291.982452 23.91614 z" stroke-linecap="round" />
</g>
<g transform="matrix(2.53 0 0 2.53 500.46 427.38)"  >
<path style="stroke: none; stroke-width: 1; stroke-dasharray: none; stroke-linecap: butt; stroke-dashoffset: 0; stroke-linejoin: miter; stroke-miterlimit: 4; fill: rgb(65,233,205); fill-rule: nonzero; opacity: 1;" vector-effect="non-scaling-stroke"  transform=" translate(-254.08, -151.9)" d="M 255.922653 24.863079 C 260.315948 31.446915 264.795593 37.975071 269.084869 44.626003 C 278.483307 59.199215 283.946503 75.07196 286.153564 92.361443 C 288.981964 114.518906 284.908112 135.357208 275.194611 155.020844 C 270.681274 164.157455 263.986847 172.200928 258.552277 180.909134 C 257.169922 183.124146 256.117065 185.982407 256.106323 188.550079 C 255.948425 226.321548 255.992554 264.093872 255.517456 302.378967 C 244.370682 302.855042 233.695084 302.818085 223.019501 302.781128 C 223.008499 264.800354 222.834137 226.817917 223.217209 188.841125 C 223.259567 184.642883 225.793579 179.98288 228.356903 176.380096 C 240.345901 159.529419 247.601318 141.027817 250.075256 120.473328 C 253.250473 94.092163 248.990067 69.188599 235.904327 46.026527 C 231.997849 39.111938 227.068542 32.777332 222.66304 26.140381 C 221.95903 25.079803 221.546417 23.825815 221.119568 21.97839 C 226.160034 14.53036 231.080017 7.765182 236 1.000002 C 236.444443 1 236.888901 1 237.770508 1.324247 C 244.112656 9.38669 250.017654 17.124886 255.922653 24.863079 z" stroke-linecap="round" />
</g>
<g transform="matrix(1.88 0 0 1.88 541.11 978.69)"  >
<path style="stroke: none; stroke-width: 1; stroke-dasharray: none; stroke-linecap: butt; stroke-dashoffset: 0; stroke-linejoin: miter; stroke-miterlimit: 4; fill: rgb(255,255,255); fill-rule: nonzero; opacity: 1;" vector-effect="non-scaling-stroke"  transform=" translate(-256.67, -510.2)" d="M 251.458069 513 C 252.588303 511.236847 254.17662 509.473724 255.890686 507.397797 C 257.9375 508.839966 259.858582 510.594879 261.889832 512.674927 C 258.638702 513 255.27742 513 251.458069 513 z" stroke-linecap="round" />
</g>
<g transform="matrix(1.88 0 0 1.88 675.37 978.73)"  >
<path style="stroke: none; stroke-width: 1; stroke-dasharray: none; stroke-linecap: butt; stroke-dashoffset: 0; stroke-linejoin: miter; stroke-miterlimit: 4; fill: rgb(255,255,255); fill-rule: nonzero; opacity: 1;" vector-effect="non-scaling-stroke"  transform=" translate(-328.18, -510.21)" d="M 323.454102 513 C 324.66037 511.256622 326.32074 509.513275 328.001282 507.425354 C 329.622467 508.838715 331.223541 510.596649 332.912292 512.677246 C 329.969391 513 326.938812 513 323.454102 513 z" stroke-linecap="round" />
</g>
<g transform="matrix(2.53 0 0 2.53 480.3 900.18)"  >
<path style="stroke: none; stroke-width: 1; stroke-dasharray: none; stroke-linecap: butt; stroke-dashoffset: 0; stroke-linejoin: miter; stroke-miterlimit: 4; fill: rgb(42,79,136); fill-rule: nonzero; opacity: 1;" vector-effect="non-scaling-stroke"  transform=" translate(-246.56, -339.05)" d="M 366.069305 329.891602 C 372.318573 330.443512 374.425964 332.43811 375.226044 338.558197 C 375.882324 343.578217 373.679535 346.306824 366.139923 348.729309 C 364.666748 348.329926 363.855865 348.075684 363.044922 348.075409 C 305.269012 348.056 247.493088 348.048553 189.717209 348.099365 C 188.118744 348.100769 186.520859 348.745483 184.922699 349.09024 C 173.514664 347.09964 164.747726 350.664246 157.26593 359.897644 C 150.489197 368.260925 142.142365 375.352478 134.482178 382.999176 C 130.604248 386.87027 123.870842 387.253021 120.33934 383.816803 C 116.769829 380.343689 116.978844 373.615601 120.963448 369.588074 C 130.215118 360.236664 139.548264 350.965881 148.843628 341.657654 C 149.533401 340.966919 150.184982 340.238037 151.002686 339.369263 C 141.357651 329.769257 131.775711 320.280121 122.252815 310.732117 C 117.891106 306.358856 116.569389 300.411438 118.94265 296.591553 C 122.645302 290.631958 129.707809 290.331848 135.527893 296.071655 C 144.894104 305.308685 154.3759 314.445953 163.358322 324.046906 C 167.543518 328.520264 171.835587 331.064819 178.023712 330.048981 C 179.970413 329.72937 182.012085 329.988312 184.940689 329.975525 C 195.35527 329.980072 204.839493 330.006561 214.323669 330.00058 C 264.905548 329.968719 315.487427 329.928741 366.069305 329.891602 z" stroke-linecap="round" />
</g>
<g transform="matrix(2.53 0 0 2.53 551.3 968.6)"  >
<path style="stroke: none; stroke-width: 1; stroke-dasharray: none; stroke-linecap: butt; stroke-dashoffset: 0; stroke-linejoin: miter; stroke-miterlimit: 4; fill: rgb(42,79,136); fill-rule: nonzero; opacity: 1;" vector-effect="non-scaling-stroke"  transform=" translate(-274.59, -366.49)" d="M 256.465576 375.996155 C 245.30542 375.999603 234.613876 375.982971 223.452087 375.98877 C 210.942078 376.005554 198.902328 375.999878 186.390915 376.031677 C 177.425049 375.88382 174.107147 373.44574 173.999893 367.310486 C 173.882477 360.593964 177.13855 357.273193 184.996704 356.993835 C 226.97261 357.032654 268.078705 357.079407 309.184784 357.078461 C 328.154877 357.078033 347.124939 356.984314 366.095032 356.932922 C 371.530701 357.526978 376.050385 361.313293 375.041229 368.50885 C 374.4617 372.641022 370.920776 375.748566 365.48233 376.039307 C 353.038727 376.037537 340.995209 376.007263 328.485413 375.995728 C 316.320129 375.998505 304.621094 375.982483 292.451813 375.989319 C 280.299103 376.000122 268.616638 375.988068 256.465576 375.996155 z" stroke-linecap="round" />
</g>
<g transform="matrix(2.53 0 0 2.53 551.28 829.56)"  >
<path style="stroke: none; stroke-width: 1; stroke-dasharray: none; stroke-linecap: butt; stroke-dashoffset: 0; stroke-linejoin: miter; stroke-miterlimit: 4; fill: rgb(42,79,136); fill-rule: nonzero; opacity: 1;" vector-effect="non-scaling-stroke"  transform=" translate(-274.58, -311.53)" d="M 222.552094 302.840759 C 233.695084 302.818085 244.370682 302.855042 255.509995 302.833466 C 267.677399 302.817322 279.381073 302.859711 291.552399 302.841553 C 303.699066 302.817322 315.378052 302.853638 327.522034 302.828857 C 340.151245 302.684753 352.315491 302.601715 364.776123 302.216125 C 371.688965 302.677856 375.788605 306.196259 375.090027 312.58194 C 374.512268 317.862793 372.656342 320.187866 365.989716 321.022705 C 350.321136 321.015747 335.51239 320.985382 320.703613 320.995117 C 275.446198 321.024963 230.188766 321.070221 184.931351 321.109436 C 176.212845 320.802704 173.907806 318.648743 173.999863 310.894379 C 174.066284 305.300537 177.772385 302.329865 185.522888 301.948029 C 187.487915 302.256287 189.043533 302.888245 190.603516 302.899261 C 201.096725 302.973297 211.590866 302.915466 222.552094 302.840759 z" stroke-linecap="round" />
</g>
<g transform="matrix(2.53 0 0 2.88 553.62 864.35)"  >
<path style="stroke: none; stroke-width: 1; stroke-dasharray: none; stroke-linecap: butt; stroke-dashoffset: 0; stroke-linejoin: miter; stroke-miterlimit: 4; fill: rgb(65,233,205); fill-rule: nonzero; opacity: 1;" vector-effect="non-scaling-stroke"  transform=" translate(-275.5, -325.5)" d="M 184.958008 321.547058 C 230.188766 321.070221 275.446198 321.024963 320.703613 320.995117 C 335.51239 320.985382 350.321136 321.015747 365.599945 321.067444 C 366.05188 323.743744 366.033752 326.380402 366.04248 329.454315 C 315.487427 329.928741 264.905548 329.968719 214.323669 330.00058 C 204.839493 330.006561 195.35527 329.980072 185.401154 329.929749 C 184.949036 327.255493 184.966843 324.620087 184.958008 321.547058 z" stroke-linecap="round" />
</g>
<g transform="matrix(2.53 0 0 2.53 553.59 934.43)"  >
<path style="stroke: none; stroke-width: 1; stroke-dasharray: none; stroke-linecap: butt; stroke-dashoffset: 0; stroke-linejoin: miter; stroke-miterlimit: 4; fill: rgb(65,233,205); fill-rule: nonzero; opacity: 1;" vector-effect="non-scaling-stroke"  transform=" translate(-275.51, -352.57)" d="M 366.057373 356.498779 C 347.124939 356.984314 328.154877 357.078033 309.184784 357.078461 C 268.078705 357.079407 226.97261 357.032654 185.397308 356.950623 C 184.946503 354.582245 184.96492 352.268646 184.953033 349.522644 C 186.520859 348.745483 188.118744 348.100769 189.717209 348.099365 C 247.493088 348.048553 305.269012 348.056 363.044922 348.075409 C 363.855865 348.075684 364.666748 348.329926 365.771698 348.77063 C 366.050385 351.405243 366.035034 353.734924 366.057373 356.498779 z" stroke-linecap="round" />
</g>
<g transform="matrix(2.53 0 0 2.53 368.33 239.27)"  >
<path style="stroke: none; stroke-width: 1; stroke-dasharray: none; stroke-linecap: butt; stroke-dashoffset: 0; stroke-linejoin: miter; stroke-miterlimit: 4; fill: rgb(42,79,136); fill-rule: nonzero; opacity: 1;" vector-effect="non-scaling-stroke"  transform=" translate(-201.49, -77.5)" d="M 212.232315 62.76725 C 219.772964 70.310349 227.193542 77.479195 234.315125 84.933701 C 240.568741 91.479691 238.591415 99.635864 230.162949 101.155632 C 227.53923 101.628723 223.79071 99.79171 221.576935 97.849701 C 215.71283 92.705444 210.29277 87.032883 204.926941 81.352386 C 202.36853 78.643936 200.58049 78.670784 198.030746 81.364861 C 192.545059 87.161079 186.914856 92.836304 181.086258 98.285591 C 178.155563 101.025558 174.686096 103.061493 170.346848 100.72049 C 166.613983 98.706612 164.332565 95.67202 165.161942 91.489693 C 165.641876 89.069603 167.166672 86.542389 168.918106 84.740929 C 178.656372 74.724617 188.660172 64.967003 198.448517 54.998528 C 200.766586 52.637791 202.459442 52.701534 204.602997 55.080807 C 206.937698 57.67226 209.512283 60.0476 212.232315 62.76725 z" stroke-linecap="round" />
</g>
<g transform="matrix(2.53 0 0 2.53 368.08 352.43)"  >
<path style="stroke: none; stroke-width: 1; stroke-dasharray: none; stroke-linecap: butt; stroke-dashoffset: 0; stroke-linejoin: miter; stroke-miterlimit: 4; fill: rgb(42,79,136); fill-rule: nonzero; opacity: 1;" vector-effect="non-scaling-stroke"  transform=" translate(-201.39, -122.24)" d="M 187.733246 111.733253 C 192.306488 107.10601 196.629776 102.728806 202.061371 97.229485 C 206.02684 101.650375 209.632828 105.939659 213.52562 109.950607 C 220.253494 116.882713 227.176743 123.624794 233.984619 130.479782 C 238.724564 135.252502 239.077972 140.237 235.059021 144.478912 C 231.437134 148.301743 226.104294 148.258148 221.40181 143.745377 C 214.803513 137.413223 208.543976 130.728088 201.679138 123.724213 C 195.237198 130.183151 189.262024 136.360718 183.051788 142.292206 C 181.070602 144.184464 178.652115 146.107834 176.102783 146.802628 C 172.19873 147.866653 168.534042 146.715103 166.347229 142.740646 C 164.14325 138.73494 164.495163 135.045334 167.713181 131.788681 C 174.269531 125.153587 180.889511 118.581398 187.733246 111.733253 z" stroke-linecap="round" />
</g>
</svg>